<svg width="28" height="28" viewBox="0 0 28 28" fill="none" xmlns="http://www.w3.org/2000/svg">
<circle cx="14" cy="14" r="14" fill="#EEECFC"/>
<path d="M14.6542 14.0045L18.9077 9.76543C19.0854 9.58605 19.0854 9.29546 18.9077 9.11608C18.7331 8.9335 18.4448 8.92802 18.2636 9.10383L14.0101 13.3429L9.81124 9.10383C9.72515 9.01204 9.60538 8.96002 9.48007 8.96002C9.35477 8.96002 9.23499 9.01204 9.14891 9.10383C8.99135 9.27714 8.99135 9.54311 9.14891 9.71642L13.3477 13.9494L9.09422 18.1824C8.91651 18.3618 8.91651 18.6523 9.09422 18.8317C9.17882 18.9191 9.29517 18.9678 9.41627 18.9665C9.5397 18.9766 9.66207 18.9369 9.75655 18.8562L14.0101 14.6171L18.2636 18.9052C18.3482 18.9926 18.4645 19.0413 18.5856 19.04C18.7066 19.0406 18.8227 18.992 18.9077 18.9052C19.0854 18.7259 19.0854 18.4353 18.9077 18.2559L14.6542 14.0045Z" fill="black"/>
</svg>
