<svg width="135" height="136" viewBox="0 0 135 136" fill="none" xmlns="http://www.w3.org/2000/svg">
<g filter="url(#filter0_d_84_251)">
<path d="M67.5759 128C32.6039 128 4.15186 99.29 4.15186 64C4.15186 28.71 32.6039 0 67.5759 0C102.548 0 131 28.71 131 64H127C127 30.916 100.343 4 67.5759 4C34.8089 4 8.15186 30.916 8.15186 64C8.15186 97.084 34.8089 124 67.5759 124V128Z" fill="#68CC58"/>
<path d="M130.968 66.018L126.97 65.885C126.991 65.259 127 64.63 127 64H131C131 64.675 130.99 65.347 130.968 66.018ZM71.6647 127.869L71.4087 123.877C72.7075 123.794 74.0032 123.667 75.2937 123.498L75.8137 127.465C74.4355 127.645 73.0517 127.78 71.6647 127.869ZM80.0357 126.764L79.2507 122.842C80.5507 122.581 81.8617 122.271 83.1487 121.919L84.2057 125.776C82.8275 126.153 81.4367 126.483 80.0357 126.764ZM88.2957 124.505L86.9797 120.728C88.241 120.288 89.487 119.806 90.7157 119.282L92.2857 122.96C90.9735 123.52 89.6428 124.035 88.2957 124.505ZM96.1617 121.146L94.3457 117.582C95.5359 116.974 96.7056 116.327 97.8527 115.641L99.9077 119.073C98.6823 119.805 97.4329 120.497 96.1617 121.146ZM103.503 116.748L101.22 113.463C102.318 112.7 103.391 111.9 104.437 111.065L106.933 114.19C105.818 115.08 104.674 115.933 103.503 116.748ZM110.186 111.405L107.485 108.456C108.472 107.552 109.428 106.615 110.352 105.647L113.245 108.411C112.259 109.443 111.238 110.441 110.186 111.405ZM116.096 105.219L113.028 102.653C113.886 101.626 114.709 100.571 115.497 99.489L118.731 101.843C117.89 102.997 117.011 104.123 116.096 105.219ZM121.133 98.298L117.75 96.165C118.463 95.0324 119.139 93.8761 119.775 92.698L123.295 94.6C122.615 95.8564 121.894 97.0897 121.133 98.298ZM125.205 90.764L121.566 89.104C122.121 87.8853 122.636 86.6486 123.111 85.396L126.853 86.81C126.347 88.1458 125.797 89.4645 125.205 90.764ZM128.234 82.753L124.406 81.593C124.794 80.3124 125.139 79.0194 125.442 77.716L129.338 78.618C129.016 80.0082 128.648 81.3873 128.234 82.753ZM130.165 74.418L126.216 73.779C126.43 72.463 126.602 71.123 126.728 69.797L130.71 70.176C130.574 71.5955 130.392 73.0102 130.165 74.418ZM67.5757 128V124C68.2097 124 68.8427 123.988 69.4717 123.972L69.5807 127.97C68.9147 127.988 68.2467 128 67.5757 128Z" fill="#68CC58"/>
<path d="M57.0967 94.6361L33.1597 70.1591L47.9737 55.1981L57.2457 64.5571L88.1416 33.3721L102.969 48.3421L57.0967 94.6361ZM38.7717 70.1771L57.1147 88.9351L97.3386 48.3421L88.1426 39.0561L57.2467 70.2401L47.9757 60.8821L38.7717 70.1771Z" fill="#68CC58"/>
</g>
<defs>
<filter id="filter0_d_84_251" x="0.151855" y="0" width="134.848" height="136" filterUnits="userSpaceOnUse" color-interpolation-filters="sRGB">
<feFlood flood-opacity="0" result="BackgroundImageFix"/>
<feColorMatrix in="SourceAlpha" type="matrix" values="0 0 0 0 0 0 0 0 0 0 0 0 0 0 0 0 0 0 127 0" result="hardAlpha"/>
<feOffset dy="4"/>
<feGaussianBlur stdDeviation="2"/>
<feComposite in2="hardAlpha" operator="out"/>
<feColorMatrix type="matrix" values="0 0 0 0 0 0 0 0 0 0 0 0 0 0 0 0 0 0 0.25 0"/>
<feBlend mode="normal" in2="BackgroundImageFix" result="effect1_dropShadow_84_251"/>
<feBlend mode="normal" in="SourceGraphic" in2="effect1_dropShadow_84_251" result="shape"/>
</filter>
</defs>
</svg>
