<svg width="135" height="136" viewBox="0 0 135 136" fill="none" xmlns="http://www.w3.org/2000/svg">
<g filter="url(#filter0_d_84_267)">
<path d="M67.5763 128C32.6043 128 4.15234 99.289 4.15234 63.999H8.15234C8.15234 97.084 34.8093 124 67.5763 124C100.343 124 127 97.084 127 63.999C127 30.916 100.343 4 67.5763 4V0C102.548 0 131 28.71 131 63.999C131 99.289 102.548 128 67.5763 128Z" fill="#E7300C"/>
<path d="M8.57617 63.999H4.57617C4.57617 63.327 4.58617 62.654 4.60717 61.987L8.60517 62.111C8.58517 62.737 8.57617 63.368 8.57617 63.999ZM8.85017 58.2L4.86817 57.822C5.00217 56.409 5.18617 54.981 5.41317 53.578L9.36117 54.219C9.14746 55.5401 8.97703 56.8678 8.85017 58.2ZM10.1362 50.281L6.24017 49.379C6.56017 47.995 6.93217 46.604 7.34417 45.244L11.1722 46.405C10.7841 47.6852 10.4385 48.9779 10.1362 50.281ZM12.4662 42.602L8.72517 41.187C9.23067 39.851 9.78064 38.5323 10.3742 37.233L14.0132 38.894C13.4563 40.1124 12.9403 41.3491 12.4662 42.602ZM15.8022 35.3L12.2832 33.398C12.9622 32.142 13.6829 30.909 14.4442 29.701L17.8292 31.833C17.1151 32.9658 16.4391 34.1221 15.8022 35.3ZM20.0822 28.51L16.8482 26.156C17.6883 25.0022 18.5664 23.8766 19.4812 22.781L22.5512 25.344C21.6933 26.3717 20.8698 27.4276 20.0822 28.51ZM25.2252 22.351L22.3332 19.587C23.3194 18.5551 24.3396 17.5562 25.3922 16.592L28.0922 19.543C27.1056 20.4469 26.1494 21.3834 25.2252 22.351ZM31.1422 16.933L28.6442 13.809C29.7589 12.9179 30.9032 12.0644 32.0752 11.25L34.3572 14.535C33.259 15.2981 32.1867 16.0979 31.1422 16.933ZM37.7262 12.359L35.6702 8.927C36.8946 8.19452 38.1429 7.50281 39.4132 6.853L41.2322 10.416C40.0419 11.0239 38.8726 11.672 37.7262 12.359ZM44.8622 8.717L43.2912 5.038C44.603 4.47779 45.9334 3.96217 47.2802 3.492L48.5982 7.268C47.3432 7.708 46.0852 8.195 44.8622 8.717ZM52.4272 6.081L51.3712 2.223C52.7488 1.8461 54.139 1.51657 55.5392 1.235L56.3282 5.157C55.0175 5.41972 53.7164 5.7279 52.4272 6.081ZM60.2832 4.5L59.7642 0.534C61.1414 0.354262 62.5241 0.219523 63.9102 0.13L64.1672 4.122C62.8687 4.20583 61.5734 4.3319 60.2832 4.5ZM66.1122 4.029L65.9882 0.031C66.6552 0.01 67.3282 0 68.0002 0V4C67.3692 4 66.7382 4.009 66.1122 4.029Z" fill="#E7300C"/>
<path d="M83.5182 94.626L68.0002 78.965L52.4812 94.626L37.6572 79.664L53.1752 64.001L37.6572 48.34L52.4802 33.374L68.0002 49.036L83.5182 33.374L98.3432 48.34L82.8252 64.001L98.3432 79.664L83.5182 94.626ZM43.2882 79.664L52.4812 88.942L68.0002 73.281L83.5182 88.942L92.7122 79.664L77.1942 64.001L92.7122 48.34L83.5182 39.058L68.0002 54.72L52.4812 39.058L43.2872 48.34L58.8052 64.002L43.2882 79.664Z" fill="#E7300C"/>
</g>
<defs>
<filter id="filter0_d_84_267" x="0" y="0" width="136" height="136" filterUnits="userSpaceOnUse" color-interpolation-filters="sRGB">
<feFlood flood-opacity="0" result="BackgroundImageFix"/>
<feColorMatrix in="SourceAlpha" type="matrix" values="0 0 0 0 0 0 0 0 0 0 0 0 0 0 0 0 0 0 127 0" result="hardAlpha"/>
<feOffset dy="4"/>
<feGaussianBlur stdDeviation="2"/>
<feColorMatrix type="matrix" values="0 0 0 0 0 0 0 0 0 0 0 0 0 0 0 0 0 0 0.25 0"/>
<feBlend mode="normal" in2="BackgroundImageFix" result="effect1_dropShadow_84_267"/>
<feBlend mode="normal" in="SourceGraphic" in2="effect1_dropShadow_84_267" result="shape"/>
</filter>
</defs>
</svg>
