<svg width="39" height="39" viewBox="0 0 39 39" fill="none" xmlns="http://www.w3.org/2000/svg">
<path d="M18.5882 15.2941C18.5882 17.1134 17.1134 18.5882 15.2941 18.5882C13.4748 18.5882 12 17.1134 12 15.2941C12 13.4748 13.4748 12 15.2941 12C17.1134 12 18.5882 13.4748 18.5882 15.2941Z" fill="#10121F"/>
<path d="M28 15.2941C28 17.1134 26.5252 18.5882 24.7059 18.5882C22.8866 18.5882 21.4118 17.1134 21.4118 15.2941C21.4118 13.4748 22.8866 12 24.7059 12C26.5252 12 28 13.4748 28 15.2941Z" fill="#10121F"/>
<path d="M18.5882 24.7059C18.5882 26.5252 17.1134 28 15.2941 28C13.4748 28 12 26.5252 12 24.7059C12 22.8866 13.4748 21.4118 15.2941 21.4118C17.1134 21.4118 18.5882 22.8866 18.5882 24.7059Z" fill="#10121F"/>
<path d="M28 24.7059C28 26.5252 26.5252 28 24.7059 28C22.8866 28 21.4118 26.5252 21.4118 24.7059C21.4118 22.8866 22.8866 21.4118 24.7059 21.4118C26.5252 21.4118 28 22.8866 28 24.7059Z" fill="#10121F"/>
</svg>
