<svg width="24" height="24" viewBox="0 0 24 24" fill="none" xmlns="http://www.w3.org/2000/svg">
<path d="M7.4306 5.9494C7.23087 5.94668 7.03852 6.02482 6.89728 6.16607C6.75603 6.30731 6.67789 6.49966 6.6806 6.6994C6.6806 7.11361 7.01639 7.4494 7.4306 7.4494L15.5006 7.4494L6.1606 16.7794C5.95995 16.9664 5.87735 17.248 5.94522 17.5137C6.01308 17.7794 6.22058 17.9869 6.48631 18.0548C6.75205 18.1226 7.03363 18.04 7.2206 17.8394L16.5606 8.4994L16.5606 16.5694C16.5606 16.9836 16.8964 17.3194 17.3106 17.3194C17.7248 17.3194 18.0606 16.9836 18.0606 16.5694L18.0606 6.6894C18.0606 6.27518 17.7248 5.9394 17.3106 5.9394L7.4306 5.9494Z" fill="white"/>
</svg>
