<svg width="11" height="10" viewBox="0 0 11 10" fill="none" xmlns="http://www.w3.org/2000/svg">
<path d="M10.5255 4.69256L6.29571 0.462787C6.17913 0.349451 6.01095 0.306915 5.85451 0.351204C5.69807 0.395492 5.57714 0.519876 5.53728 0.677501C5.49741 0.835125 5.54467 1.00204 5.66124 1.11538L9.11153 4.55963H1.11725C0.866963 4.55963 0.664062 4.76253 0.664062 5.01282C0.664062 5.26311 0.866963 5.46601 1.11725 5.46601H9.10549L5.66124 8.91025C5.57486 8.99442 5.52615 9.10991 5.52615 9.23051C5.52615 9.35111 5.57486 9.4666 5.66124 9.55076C5.74453 9.63816 5.86079 9.68642 5.9815 9.6837C6.10178 9.68427 6.21722 9.63635 6.30175 9.55076L10.5315 5.32099C10.7082 5.14405 10.7082 4.85741 10.5315 4.68048L10.5255 4.69256Z" fill="#10121F"/>
</svg>
