<svg width="370" height="714" viewBox="0 0 370 714" fill="none" xmlns="http://www.w3.org/2000/svg">
<mask id="path-1-inside-1_660_1751" fill="white">
<path fill-rule="evenodd" clip-rule="evenodd" d="M370 683.112C370 699.681 356.569 713.112 340 713.112H30C13.4315 713.112 0 699.681 0 683.112V30.0279C0 8.9959 21.0797 -5.50763 40.7225 2.00954L350.722 120.645C362.333 125.088 370 136.232 370 148.663V683.112Z"/>
</mask>
<path d="M350.722 120.645L351.437 118.777L350.722 120.645ZM40.7225 2.00954L40.0076 3.87743L40.7225 2.00954ZM30 715.112H340V711.112H30V715.112ZM-2 30.0279V683.112H2V30.0279H-2ZM40.0076 3.87743L350.008 122.513L351.437 118.777L41.4373 0.141649L40.0076 3.87743ZM372 683.112V148.663H368V683.112H372ZM350.008 122.513C360.844 126.66 368 137.06 368 148.663H372C372 135.403 363.822 123.516 351.437 118.777L350.008 122.513ZM2 30.0279C2 10.398 21.6744 -3.1386 40.0076 3.87743L41.4373 0.141649C20.4851 -7.87667 -2 7.59376 -2 30.0279H2ZM340 715.112C357.673 715.112 372 700.785 372 683.112H368C368 698.576 355.464 711.112 340 711.112V715.112ZM30 711.112C14.536 711.112 2 698.576 2 683.112H-2C-2 700.785 12.3269 715.112 30 715.112V711.112Z" fill="black" mask="url(#path-1-inside-1_660_1751)"/>
</svg>
